<?xml version="1.0" encoding="utf-8"?>
<!-- Generator: Adobe Illustrator 24.3.0, SVG Export Plug-In . SVG Version: 6.00 Build 0)  -->
<svg version="1.1" id="Layer_1" xmlns="http://www.w3.org/2000/svg" xmlns:xlink="http://www.w3.org/1999/xlink" x="0px" y="0px"
	 viewBox="0 0 1448 770" style="enable-background:new 0 0 1448 770;" xml:space="preserve">
<style type="text/css">
	.st0{fill:#FFFFFF;}
	.st1{fill:#FCB118;}
	.st2{fill:#FE6600;}
	.st3{fill:#9CCC2B;}
	.st4{fill:#009BC3;}
	.st5{fill:#9B8E04;}
	.st6{fill:#003E00;}
	.st7{fill:#FC4700;}
	.st8{fill:#007D21;}
</style>
<g>
	<path class="st0" d="M810.8,439.7c-6,4.2-12.5,6.7-19.3,8.1c-7.4,1.6-14.7,1.3-21.9-0.8c-11.2-3.4-16.7-11.4-18.6-22.1
		c-0.6-3.3-0.7-6.7-0.7-10.1c0-18.3,0-36.6-0.1-54.9c0-2.2,0.7-2.5,2.7-2.5c5.4,0.1,10.9,0.1,16.3,0c2.3-0.1,3,0.4,3,2.8
		c-0.1,17.5-0.1,35-0.1,52.5c0,2.6,0.1,5.2,0.7,7.8c1.6,6.4,5.7,10.1,12.5,10.8c8.7,0.8,16.2-1.7,22.5-7.7c2.1-2,3.1-4.3,3-7.2
		c-0.1-18.8,0-37.6-0.1-56.4c0-1.8,0.4-2.5,2.5-2.5c5.9,0.2,11.7,0.1,17.6,0c1.4,0,1.9,0.3,1.9,1.7c0,28.7,0,57.5,0,86.2
		c0,1.4-0.4,1.8-1.8,1.8c-6.1-0.1-12.2-0.1-18.4,0c-1.3,0-1.8-0.3-1.7-1.6C810.8,443.6,810.8,441.8,810.8,439.7z"/>
	<path class="st0" d="M882.2,365.5c11.9-10.9,25.8-11.9,40.3-7.6c12.9,3.8,19.4,13.3,21.7,25.8c0.5,3,0.6,6,0.6,9.1
		c0,17.3,0,34.6,0,51.9c0,2-0.6,2.4-2.5,2.4c-5.7-0.1-11.4-0.1-17.1,0c-1.9,0-2.4-0.4-2.4-2.3c0.1-16.2,0.1-32.3,0-48.5
		c0-3-0.1-5.9-0.6-8.8c-1.6-8.7-6.4-13.3-15.6-14.2c-8.2-0.8-15.1,2.1-21,7.4c-1.1,1-1.3,2.2-1.3,3.6c0,20.1,0,40.2,0.1,60.3
		c0,2.1-0.6,2.6-2.7,2.5c-5.8-0.1-11.5-0.1-17.3,0c-1.5,0-2-0.2-2-1.8c0.1-28.6,0.1-57.3,0-85.9c0-1.4,0.3-2,1.9-2c4,0.1,8,0.1,12,0
		c1.4,0,2.1,0.3,2.7,1.6C880,361.2,881.1,363.3,882.2,365.5z"/>
	<path class="st0" d="M1173.7,365.6c10.3-10.2,23-11.4,36.4-8.8c14.4,2.8,23.9,13.5,25.6,27.7c0.4,2.9,0.5,5.9,0.5,8.8
		c0,17.1,0,34.3,0,51.5c0,1.8-0.4,2.3-2.4,2.3c-5.8-0.1-11.6-0.1-17.3,0c-2,0.1-2.3-0.6-2.3-2.3c0.1-16.3,0-32.5,0-48.8
		c0-2.7-0.1-5.4-0.5-8.1c-1.4-9-6.4-13.7-15.7-14.7c-8.2-0.8-15.1,2.1-21,7.5c-1.1,1-1.3,2.2-1.2,3.6c0,20,0,40.1,0.1,60.1
		c0,2.1-0.4,2.8-2.7,2.7c-5.7-0.2-11.4-0.1-17.1,0c-1.6,0-2.1-0.3-2.1-2c0.1-28.6,0.1-57.1,0-85.7c0-1.6,0.4-2.1,2.1-2.1
		c4,0.1,8,0.1,12,0c1.3,0,2,0.4,2.5,1.5C1171.5,361.2,1172.6,363.3,1173.7,365.6z"/>
	<path class="st0" d="M210.6,428.8c16,0,31.5,0,47.1,0c1.9,0,2.6,0.4,2.5,2.4c-0.2,4.5-0.1,9,0,13.5c0.1,1.9-0.4,2.4-2.4,2.4
		c-24.1-0.1-48.2,0-72.3,0c-1.3,0-2.6,0.1-3.8,0c-1.6-0.1-4.5,0.7-4.7-0.5c-0.4-2.6-1.2-5.5,0.8-8c14.9-18.8,29.9-37.6,44.8-56.4
		c1.6-2,3.2-4,4.8-6.1c-0.8-0.7-1.6-0.4-2.3-0.4c-14.9,0-29.9-0.1-44.8,0c-2.4,0-2.8-0.7-2.7-2.7c0.2-4.5,0.1-9,0-13.5
		c0-1.5,0.3-2.1,2-2.1c26.1,0.1,52.1,0,78.2,0c1.4,0,1.8,0.3,1.9,1.7c0.3,3.8-0.8,6.8-3.2,9.9c-14.9,19.1-29.6,38.4-44.3,57.7
		C211.7,427.2,211.3,427.8,210.6,428.8z"/>
	<path class="st0" d="M1029,427.1c0,6.3,0,12.2,0,18.1c0,0.9-0.5,1.3-1.3,1.4c-10.5,2.3-21.2,3.5-31.7,0.5
		c-10.8-3-17.4-12.1-17.6-24.1c-0.3-15.3-0.2-30.7-0.1-46c0-2.2-0.4-3-2.9-2.9c-2.7,0.1-6.3,1.2-7.8-0.5c-1.3-1.4-0.4-4.8-0.4-7.4
		c0-2.4,0.1-4.8,0-7.1c-0.1-1.5,0.5-1.8,1.9-1.7c2.4,0.1,4.8-0.1,7.1,0.1c1.8,0.1,2.1-0.6,2.1-2.1c-0.1-4.7,0.1-9.4-0.1-14
		c-0.1-1.7,0.6-2.4,2.2-2.9c5.8-2,11.6-4,17.4-6.2c2.1-0.8,2.4-0.2,2.3,1.7c-0.1,7.1,0,14.3-0.1,21.4c0,1.8,0.5,2.2,2.3,2.1
		c7.1-0.1,14.1,0,21.1-0.1c1.8,0,2.5,0.2,2.4,2.2c-0.2,4.1-0.2,8.2,0,12.3c0.1,1.8-0.3,2.4-2.3,2.3c-7.2-0.1-14.4,0-21.6-0.1
		c-1.4,0-1.9,0.3-1.8,1.8c0.1,13.8,0.1,27.6,0.2,41.4c0,1.1,0.2,2.1,0.4,3.2c1.5,7.7,5.1,10.7,13.2,10.8
		C1019.1,431.3,1024,429.9,1029,427.1z"/>
	<path class="st0" d="M1320.4,427.2c0,6.2,0,11.9,0,17.7c0,1.1-0.3,1.6-1.5,1.8c-9.8,2.2-19.7,3.1-29.5,1
		c-11.6-2.5-18.9-11.4-19.6-23.4c-0.7-12.2-0.2-24.5-0.3-36.7c0-3.9-0.1-7.7,0-11.6c0-1.6-0.5-2-2-1.9c-2.5,0.1-4.9,0-7.4,0.1
		c-1.2,0-1.6-0.3-1.6-1.5c0.1-4.6,0.1-9.2,0-13.8c0-1.2,0.3-1.6,1.6-1.5c2.3,0.1,4.6-0.1,6.9,0.1c1.9,0.1,2.6-0.3,2.6-2.3
		c-0.2-4.7,0-9.4-0.1-14c0-1.4,0.3-2,1.7-2.5c6.1-2.1,12.1-4.1,18.1-6.4c2-0.7,2,0,2,1.5c0,7.1,0.1,14.1-0.1,21.2
		c0,2,0.4,2.6,2.6,2.6c7.1-0.1,14.3,0,21.4-0.1c1.6,0,2,0.4,2,1.9c-0.1,4.4-0.1,8.7,0,13.1c0,1.6-0.5,1.9-2,1.8
		c-7.2-0.1-14.5,0-21.7-0.1c-1.7,0-2.3,0.4-2.3,2.2c0.1,12.5,0,24.9,0.1,37.4c0,3.3,0.3,6.6,1.3,9.7c1.3,4.3,4.4,6.7,8.9,7.4
		C1308.2,431.9,1314.3,430.4,1320.4,427.2z"/>
	<path class="st0" d="M1391.8,378.2c-7.4-5.2-15.4-6.6-24-5.5c-3.6,0.5-6.4,2.2-7.3,5.9c-0.9,3.8,0.1,6.4,3.8,8.9
		c4.2,2.8,9,4.6,13.7,6.4c4.6,1.8,9.2,3.7,13.4,6.4c9.1,5.9,12.9,14.3,11.9,24.7c-1,10.3-7.1,17.2-16.9,20.6
		c-16.1,5.6-32,4.5-47.2-3.4c-1.3-0.7-1.1-1.3-0.6-2.3c2.1-4.5,4.2-8.9,6.3-13.4c0.6-1.3,1-1.4,2.3-0.6c7.6,5.2,16,7.4,25.2,6.1
		c3.4-0.5,6.5-1.7,7.7-5.2c1.2-3.7,0.6-7.1-1.9-10.2c-1.8-2.2-4.2-3.6-6.7-4.8c-4-1.9-8.1-3.7-12.2-5.4c-5.3-2.3-10.2-5.1-14.4-9.1
		c-12.3-12.1-9-30.4,6.8-37.7c8.3-3.8,17.2-4.2,26.2-3.3c6.5,0.6,12.6,2.4,18.5,5.1c1.3,0.6,1.7,1.1,1.1,2.5
		C1395.5,368.4,1393.7,373.2,1391.8,378.2z"/>
	<path class="st0" d="M510.5,380.1c-6.1-5.2-13.2-7-20.9-7c-13,0.1-22.5,7.3-25.5,19.5c-1.7,6.9-1.7,13.8,0,20.7
		c2.6,10.7,10.6,16.9,22.9,17.8c8.9,0.7,17.1-1,24.1-6.5c1.4-1.1,1.7-0.5,2.3,0.6c2.1,4.4,4.2,8.8,6.5,13.1c0.7,1.4,0.4,1.9-0.9,2.6
		c-6.7,3.8-13.8,6.6-21.7,7.2c-8.9,0.7-17.8,0.9-26.5-1.6c-14.6-4.1-24.2-13.2-28.4-27.3c-3.3-11.1-3.5-22.5,0.5-33.4
		c6.3-17.4,19.6-26.8,38.2-29.5c10.5-1.5,20.8-1.1,30.7,3.3c2.7,1.2,6.3,2.2,7.4,4.5c1.1,2.3-2.1,4.7-3.4,7.1
		C514.1,374.3,512.3,377.1,510.5,380.1z"/>
	<path class="st0" d="M610.6,423.7c2.5,5.2,5,10.2,7.5,15.2c0.8,1.5-0.3,1.7-1.1,2.2c-6.7,3.9-13.8,6.6-21.7,7.2
		c-9.3,0.7-18.7,1-27.7-1.9c-16.8-5.4-26.1-17-28.7-33.7c-1.5-9.8-1.2-19.5,2.8-28.8c6.9-16.2,19.8-24.9,37.4-27.4
		c11-1.5,21.8-1,32,3.9c2,1,3.8,2.2,5.7,3.2c0.7,0.4,1.2,0.7,0.6,1.7c-3,4.9-5.8,9.8-8.8,14.7c-7.4-6.2-16.1-7.8-25.3-6.6
		c-11.1,1.5-17.7,8-20.8,18c-2.1,7-2.1,14.3-0.5,21.4c2.7,11.4,11,17.7,23.9,18.3C595.1,431.8,603.4,429.6,610.6,423.7z"/>
	<path class="st1" d="M341.1,312.5c0.6-0.7,1.4-0.4,2.1-0.4c8.2,0,16.5,0,24.7-0.1c1.6,0,2.4,0.5,3.1,1.8
		c20,38.4,39.9,76.8,59.9,115.3c0.4,0.7,1.4,1.5,0,2.2c-1,0.3-1.8-0.3-2.5-0.8c-13-8-25.9-16-38.9-24.1c-0.7-0.5-1.4-1.1-1.8-1.9
		c-0.6-1.3-1.1-2.5-1.8-3.8c-9.9-18.8-19.3-38-29.2-56.8c-0.6-1.1-1.3-2.2-1.3-3.4c0-0.3,0-0.5,0.1-0.8c2.7-5.8,5.8-11.4,8.7-17.2
		c1.1-2.2,2.3-4.4,3.2-6.7c1.2-2.7,1.2-2.7-2-2.8c-6.8,0-13.7,0-20.5,0c-1.2,0-2.4,0.2-3.5-0.5C341.3,312.7,341.2,312.6,341.1,312.5
		z"/>
	<path class="st2" d="M355.8,340.1c0,0.2,0,0.5,0,0.7c-0.2,1.3-0.8,2.5-1.4,3.6c-6.7,12.8-13.4,25.6-19.9,38.5
		c-3.7,7.4-7.5,14.9-11.4,22.3c-0.4,0.5-0.8,0.9-1.3,1.3c-12.9,7.9-25.8,16-38.7,23.9c-0.9,0.5-1.6,1.2-2.8,1
		c-1.7-0.9-0.3-1.9,0.1-2.6c11.8-22.7,23.6-45.4,35.4-68.1c8-15.4,16-30.7,24-46.1c0.4-0.7,0.8-1.4,1.2-2.1c0,0.1,0,0.2,0.1,0.2
		c0.8,0.3,1.2,0.9,1.5,1.6c4.2,8.2,8.5,16.4,12.7,24.6C355.7,339.3,355.7,339.7,355.8,340.1z"/>
	<path class="st3" d="M388.1,404.6c0.5,0.5,1,0.9,1.5,1.4c0.9,0.9,1.4,2,2,3.1c6.1,12,12.6,23.7,18.3,35.8c0.5,1,1.5,1.9,0.6,3.2
		c-6.4-3.8-12.8-7.7-19.2-11.5c-11.2-6.9-22.5-13.8-33.7-20.6c-0.6-0.4-1.3-0.7-2-1.1c-0.2-0.1-0.3-0.2-0.3-0.3c0-0.1,0-0.2,0.1-0.2
		c7.4-4.9,15-9.3,22.6-14c0.6-0.3,1.2-0.6,1.9-0.6C383.1,400.6,385.6,402.6,388.1,404.6z"/>
	<path class="st4" d="M355.5,414.6c0,0.1,0,0.2,0,0.3c-15,9.1-29.9,18.3-44.9,27.4c-3.4,2.1-6.9,4.1-10.3,6.2
		c-0.7-0.9,0-1.7,0.3-2.5c6.5-12.6,13-25.2,19.5-37.8c0.4-0.8,1.1-1.5,1.6-2.2c0.3-0.3,0.6-0.5,0.9-0.8c2.6-2.3,5.5-4.3,8.8-5.6
		c3,1.2,5.5,3.1,8.2,4.7c4.7,2.8,9.3,5.7,13.9,8.5C354.3,413.3,355.2,413.6,355.5,414.6z"/>
	<path class="st5" d="M410.4,448.1c-0.8-2.9-2.3-5.4-3.7-8.1c-5.3-10.5-10.8-20.9-16.1-31.3c-0.4-0.9-1.1-1.7-1.1-2.7
		c7,4.3,14,8.5,21,12.8c6.8,4.1,13.6,8.3,20.3,12.5c-6,5.9-12.6,11.1-18.8,16.8C411.5,448.7,411,448.9,410.4,448.1z"/>
	<path class="st6" d="M321.8,405.9c0,1-0.6,1.7-1,2.5c-6.4,12.5-12.8,24.9-19.2,37.4c-0.4,0.9-0.8,1.8-1.2,2.7
		c-0.3,0.2-0.6,0.1-0.9-0.1c-6.4-5.6-12.7-11.3-19-16.9c13.1-8.1,26.3-16.2,39.4-24.4C320.4,406.6,321.1,406.3,321.8,405.9z"/>
	<path class="st0" d="M155.5,363.6c-2.9-12-8.2-22.7-18.5-30.3c-15.3-11.3-32.7-13-50.8-9c-16.1,3.6-27,14.1-33.5,28.3
		c-11.2,24.3-10,48.8,2,72.6c5.5,10.9,14.9,18.1,27,21.7c7.2,2.1,14.5,2.5,21.9,2.1c23.1-1.3,39.5-12,48.4-32.9
		c4.3-10,5.7-20.5,5.6-31.8C157.8,377.6,157.2,370.5,155.5,363.6z M130,409.6c-7.3,19.5-25.9,22.2-38.6,19.3
		c-6.7-1.5-11.4-5.6-14.9-11.2c-4.7-7.4-6.3-15.7-7.1-24.1c-0.2-2.7-0.3-5.4-0.4-7.7c0.1-9,0.9-17.5,4.4-25.5
		c5.5-12.8,15.1-19.1,28.7-18.6c14.5,0.4,24.4,7,28.6,20.3C135.8,377.8,135.9,393.9,130,409.6z"/>
	<path class="st0" d="M1130.9,441.5c-4.6-3.7-5.7-9-6.3-14.3c-1-8.7-0.4-17.4-0.5-26.1c-0.1-6.3-0.4-12.6-1.6-18.9
		c-2.4-13-9.7-21.5-23.2-24.8c-8.3-2-16.8-2.1-25.3-1.4c-5.8,0.5-11.4,1.8-16.7,4c-1.2,0.5-1.6,0.9-1.2,2.3c1.4,4.3,2.5,8.7,3.8,13
		c0.3,1,0.5,1.6,2,1c8.4-3.4,17.2-4.1,26.2-2.8c8.4,1.2,13.5,6.3,14,13.6c0,0.8,0.5,1.9-1.3,1.5c-9.3-1.9-18.5-0.9-27.5,1.2
		c-18.4,4.3-28.1,16.2-27.2,33.4c0.6,10.9,6.1,18.8,16.8,22.8c8.1,3.1,16.6,3.3,25,1.5c6.4-1.4,12.2-3.9,16.5-9.3
		c4.3,9,10.4,11.9,19.9,9.7c3-0.7,5-2.5,6.7-4.9C1131.4,442.6,1131.7,442.2,1130.9,441.5z M1102.3,411.9c-0.1,2,0,4.5-0.5,6.9
		c-1.6,7.6-6.4,11.9-14.4,13c-2.7,0.4-5.4,0.5-8.1,0.1c-9-1.3-13-7-10.9-15.6c1.1-4.8,4.2-8,8.8-9.8c7.8-3.1,15.8-3.3,24-2
		c1.2,0.2,1.3,0.8,1.2,1.7C1102.2,408,1102.3,409.8,1102.3,411.9z"/>
	<path class="st0" d="M723.3,382c-4.1-11.8-12.5-19.9-24.8-23.9c-5.4-1.8-11.1-2.4-16.8-2.4c-21.2-0.1-37.6,11.3-43.2,30.4
		c-3.5,11.8-3.2,23.7,0.9,35.3c3.7,10.6,10.7,18.7,21.5,23.4c6.5,2.9,13.4,3.8,20.6,3.7c1.5,0,3.1,0.1,4.6,0
		c17.6-0.8,31.7-10.8,37.3-26.9C728,408.5,727.9,395.2,723.3,382z M701,418.5c-5.7,13.4-18.4,15.2-28.5,11.6
		c-5.2-1.9-8.7-5.7-10.5-10.7c-3.9-10.9-4.3-21.9-0.2-32.8c4.3-11.5,15.3-16.5,27.3-12.8c7.1,2.1,10.9,7.2,12.9,13.8
		c1.5,4.7,1.8,9.5,1.9,14.4C703.7,407.6,703.3,413.2,701,418.5z"/>
	<path class="st7" d="M355.8,340.1c-0.9-0.4-1.1-1.2-1.5-1.9c-4.4-8.5-8.8-17-13.2-25.5c4.1-0.5,8.1-0.1,12.2-0.2
		c4.8-0.1,9.5,0,14.3,0c1.5,0,2.3,0.1,1.4,1.9C364.6,322.9,360.2,331.5,355.8,340.1z"/>
	<path class="st8" d="M331.5,399.9c7.7-4.8,15.3-9.6,23-14.4c0.7-0.4,1.2-0.7,2-0.2c7.8,5,15.8,9.5,23.4,14.7
		c-7.3,4.4-14.6,8.8-21.9,13.2c-0.8,0.5-1.6,0.8-2.4,1.3C347.5,409.7,339.5,404.8,331.5,399.9z"/>
</g>
</svg>
